<?xml version="1.0" encoding="UTF-8"?>
<!DOCTYPE svg PUBLIC "-//W3C//DTD SVG 1.1//EN" "http://www.w3.org/Graphics/SVG/1.1/DTD/svg11.dtd">
<svg xmlns="http://www.w3.org/2000/svg" version="1.1" viewBox="0 0 475 475" width="50px" height="50px" style="shape-rendering:geometricPrecision; text-rendering:geometricPrecision; image-rendering:optimizeQuality; fill-rule:evenodd; clip-rule:evenodd" xmlns:xlink="http://www.w3.org/1999/xlink">
  <!-- SVG content remains the same -->
  <g><path style="opacity:1" fill="#de6f0e" d="M 277.5,51.5 C 278.833,52.1667 279.833,53.1667 280.5,54.5C 278.621,54.3932 278.288,54.8932 279.5,56C 292.686,66.0304 305.686,76.197 318.5,86.5C 315.834,86.933 313.168,87.433 310.5,88C 313.564,91.1548 313.23,92.4882 309.5,92C 310.623,93.0437 311.956,93.7104 313.5,94C 313.043,94.414 312.709,94.914 312.5,95.5C 313.522,96.354 314.355,97.354 315,98.5C 317.222,96.7219 319.388,96.5553 321.5,98C 316.607,99.7257 315.941,102.059 319.5,105C 321.127,104.57 322.627,104.404 324,104.5C 325.758,105.469 326.258,106.636 325.5,108C 326.966,108.635 328.3,109.469 329.5,110.5C 333.749,106.558 335.249,107.558 334,113.5C 336.91,114.45 338.077,116.45 337.5,119.5C 334.726,118.277 332.059,116.777 329.5,115C 301.453,92.6178 273.119,70.6178 244.5,49C 242.5,48.3333 240.5,48.3333 238.5,49C 232.809,52.5134 227.476,56.5134 222.5,61C 221.5,61.3333 220.5,61.6667 219.5,62C 220.381,62.7083 221.047,63.5416 221.5,64.5C 220.167,65.5 218.833,66.5 217.5,67.5C 216.668,66.6715 217.001,65.8382 218.5,65C 217.833,64.3333 217.167,64.3333 216.5,65C 208.486,72.0084 200.153,78.675 191.5,85C 192.094,85.4643 192.761,85.631 193.5,85.5C 193.167,86.5 192.5,87.1667 191.5,87.5C 190.577,86.6971 189.577,86.5304 188.5,87C 180.5,93.3333 172.5,99.6667 164.5,106C 165.416,106.278 166.082,106.778 166.5,107.5C 165.833,107.833 165.167,108.167 164.5,108.5C 163.577,107.697 162.577,107.53 161.5,108C 140.424,124.621 119.257,141.121 98,157.5C 97.1368,159.749 97.6368,161.582 99.5,163C 108.216,163.309 116.55,164.309 124.5,166C 125.354,167.022 126.354,167.855 127.5,168.5C 127.458,167.479 127.458,166.479 127.5,165.5C 128.5,165.833 129.167,166.5 129.5,167.5C 129.372,169.655 129.872,171.655 131,173.5C 131.114,214.513 131.781,255.513 133,296.5C 133.168,274.33 133.668,252.33 134.5,230.5C 134.178,252.908 134.511,275.242 135.5,297.5C 134.761,297.369 134.094,297.536 133.5,298C 134.579,298.956 135.745,299.789 137,300.5C 140.249,299.853 143.582,299.519 147,299.5C 157.831,300.058 168.664,300.558 179.5,301C 183.769,305.709 183.436,310.042 178.5,314C 174.587,315.052 170.587,315.552 166.5,315.5C 153.172,314.86 139.839,314.36 126.5,314C 123.36,311.772 120.694,309.105 118.5,306C 117.552,305.517 116.552,305.351 115.5,305.5C 115.5,305.167 115.5,304.833 115.5,304.5C 116.715,263.2 116.548,221.866 115,180.5C 103.242,179.678 91.4092,179.178 79.5,179C 67.83,170.919 67.4967,162.253 78.5,153C 91.5475,142.284 104.881,131.951 118.5,122C 120.709,120.127 122.542,117.96 124,115.5C 124.046,94.4493 124.712,73.4493 126,52.5C 127.251,49.6193 129.417,47.786 132.5,47C 147.5,46.3333 162.5,46.3333 177.5,47C 179.587,47.7922 181.421,48.9588 183,50.5C 184.731,55.3336 185.731,60.3336 186,65.5C 186.561,66.0219 187.228,66.3552 188,66.5C 191.232,64.7998 194.399,62.9665 197.5,61C 208.57,51.589 219.903,42.589 231.5,34C 239.458,31.5302 247.125,32.1968 254.5,36C 261.726,42.6017 269.393,48.2684 277.5,53C 276.262,52.31 276.262,51.81 277.5,51.5 Z M 147.5,63.5 C 153.509,63.701 159.509,64.0343 165.5,64.5C 165.666,70.5092 165.499,76.5092 165,82.5C 159.887,86.3119 155.054,90.4786 150.5,95C 147.91,96.4451 145.243,97.6118 142.5,98.5C 142.5,87.1667 142.5,75.8333 142.5,64.5C 144.415,64.7845 146.081,64.4511 147.5,63.5 Z"/></g>
  <!-- ... other path elements ... -->
</svg>